<svg xmlns="http://www.w3.org/2000/svg" width="189.561" height="194.276" viewBox="0 0 189.561 194.276">
  <g id="Group_3988" data-name="Group 3988" transform="translate(-126.664 -116.985)">
    <path id="Path_115" data-name="Path 115" d="M139.711,445.6,129.7,443.459l.823-3.851-1.752-.375-2.1,9.834,1.752.375.82-3.834,10.015,2.141Z" transform="translate(0 -251.46)" fill="#fff"/>
    <path id="Path_116" data-name="Path 116" d="M164.984,358.248l-4.723-2.228,2.632-5.579,4.723,2.228.923-1.956-10.883-5.135-.923,1.956,4.555,2.149-2.632,5.579-4.555-2.149-.916,1.941,10.883,5.135Z" transform="translate(-20.695 -178.377)" fill="#fff"/>
    <path id="Path_117" data-name="Path 117" d="M217.844,274.207l-3.66,4.647-2.775-2.185,3.44-4.368-1.354-1.067-3.44,4.368-2.616-2.06,3.66-4.647-1.355-1.067-4.977,6.32,9.454,7.445,4.977-6.32Z" transform="translate(-60.946 -117.707)" fill="#fff"/>
    <path id="Path_118" data-name="Path 118" d="M324.493,179.28l-2.652-4.5,5.314-3.132,2.652,4.5,1.864-1.1-6.11-10.367-1.864,1.1,2.557,4.339-5.314,3.133-2.558-4.339L316.533,170l6.11,10.367Z" transform="translate(-148.16 -37.219)" fill="#fff"/>
    <path id="Path_119" data-name="Path 119" d="M424,143.482l5.636-1.682,1.957,2.361,2.089-.624-8.672-9.97-1.7.507-1.774,13.087,2.105-.628Zm.861-7.4,3.6,4.306-4.243,1.266Z" transform="translate(-230.097 -12.94)" fill="#fff"/>
    <path id="Path_120" data-name="Path 120" d="M515.872,129.189l-.294-5.011,3.037-.178a4.449,4.449,0,0,0,2.956-1.121,3.572,3.572,0,0,0-.292-5.121A4.471,4.471,0,0,0,518.2,117l-5.213.306.705,12.013Zm2.178-10.489a2.7,2.7,0,0,1,1.748.363,1.648,1.648,0,0,1,.653,1.324,1.615,1.615,0,0,1-.5,1.376,2.7,2.7,0,0,1-1.685.565l-2.784.163-.213-3.627Z" transform="translate(-301.461)" fill="#fff"/>
    <path id="Path_121" data-name="Path 121" d="M604.2,126.354l3,.491a4.449,4.449,0,0,0,3.13-.448,3.572,3.572,0,0,0,.835-5.061,4.471,4.471,0,0,0-2.834-1.414l-5.154-.842-1.94,11.876,2.152.351Zm.858-5.254,2.752.45a2.7,2.7,0,0,1,1.626.737,1.647,1.647,0,0,1,.348,1.436,1.617,1.617,0,0,1-.792,1.232,2.707,2.707,0,0,1-1.768.182l-2.752-.45Z" transform="translate(-370.322 -1.635)" fill="#fff"/>
    <path id="Path_122" data-name="Path 122" d="M696.382,150.787l2.023.814,1.779-4.422,7.244-4.919-2.305-.927-5.277,3.743-1.2-6.348-2.3-.927,1.819,8.565Z" transform="translate(-444.536 -16.243)" fill="#fff"/>
    <path id="Path_123" data-name="Path 123" d="M808.389,235.83a6.756,6.756,0,0,0,2.173,1.409,3.671,3.671,0,0,0,2.059.211,3.155,3.155,0,0,0,1.7-.994,2.577,2.577,0,0,0,.734-1.542,3.653,3.653,0,0,0-.345-1.768,14.64,14.64,0,0,0-1.279-2.228,7.109,7.109,0,0,1-1.038-1.9,1.2,1.2,0,0,1,.293-1.2,1.525,1.525,0,0,1,1.386-.5,3.121,3.121,0,0,1,1.68.9,5.55,5.55,0,0,1,1.736,3.352l1.612-.674a5.037,5.037,0,0,0-.655-2.043,7.561,7.561,0,0,0-1.511-1.913,5.927,5.927,0,0,0-2.115-1.309,3.836,3.836,0,0,0-2.081-.15,3.241,3.241,0,0,0-1.706,1,2.661,2.661,0,0,0-.779,2.363A8.666,8.666,0,0,0,811.813,232a7.964,7.964,0,0,1,1.069,1.919,1.141,1.141,0,0,1-.24,1.194,1.387,1.387,0,0,1-1.34.442,3.575,3.575,0,0,1-1.72-.99,6.657,6.657,0,0,1-1.321-1.646,6.342,6.342,0,0,1-.688-1.958l-1.624.663a5.951,5.951,0,0,0,.786,2.175A8.777,8.777,0,0,0,808.389,235.83Z" transform="translate(-530.066 -84.588)" fill="#fff"/>
    <path id="Path_124" data-name="Path 124" d="M862.933,297.355l4.627-3.2-1.442,7.8,1.52,2.2,1.658-8.59,8.081,1.517-1.491-2.154-7.492-1.349,4.432-3.07-1.241-1.792-9.893,6.851Z" transform="translate(-573.562 -134.003)" fill="#fff"/>
    <rect id="Rectangle_4229" data-name="Rectangle 4229" width="12.033" height="2.18" transform="translate(297.775 177.663) rotate(-24.061)" fill="#fff"/>
    <path id="Path_125" data-name="Path 125" d="M926.365,437.848l8.222-1.878-6.777,8.2.361,1.582,11.731-2.679-.455-1.994-8.205,1.874,6.764-8.184-.361-1.582-11.731,2.679Z" transform="translate(-623.676 -246.745)" fill="#fff"/>
    <path id="Path_126" data-name="Path 126" d="M185.252,764.391l-3.473-5.1,4.162-2.836-1.208-1.774-9.945,6.775L176,763.232l4.316-2.94,3.473,5.1-4.316,2.94,1.218,1.788,9.945-6.775-1.218-1.788Z" transform="translate(-37.552 -497.614)" fill="#fff"/>
    <path id="Path_127" data-name="Path 127" d="M256.108,840.114a3.385,3.385,0,0,1-2.122,1.247,2.738,2.738,0,0,1-2.129-.834,2.772,2.772,0,0,1-1.064-2.047,3.4,3.4,0,0,1,1.045-2.235l4.891-5.4-1.591-1.441-4.811,5.311a5.041,5.041,0,1,0,7.452,6.752l4.811-5.31L261,834.716Z" transform="translate(-95.269 -555.921)" fill="#fff"/>
    <rect id="Rectangle_4230" data-name="Rectangle 4230" width="12.033" height="2.18" transform="matrix(0.519, -0.855, 0.855, 0.519, 169.582, 296.405)" fill="#fff"/>
    <path id="Path_128" data-name="Path 128" d="M390.285,915.826,386.13,914.3l-4.156,11.293,4.155,1.529a6.322,6.322,0,0,0,4.852.1,6.861,6.861,0,0,0,3.067-8.335A6.342,6.342,0,0,0,390.285,915.826Zm1.7,7.02q-1.471,4-5.373,2.561l-1.983-.73,2.93-7.962,1.983.73Q393.447,918.881,391.988,922.846Z" transform="translate(-199.225 -622.165)" fill="#fff"/>
    <path id="Path_129" data-name="Path 129" d="M490.34,941.816l-4.4-.5-1.352,11.957,4.4.5a6.323,6.323,0,0,0,4.737-1.055,6.861,6.861,0,0,0,1-8.825A6.343,6.343,0,0,0,490.34,941.816Zm3.323,6.414q-.479,4.232-4.61,3.765l-2.1-.237.953-8.431,2.1.237Q494.138,944.031,493.664,948.23Z" transform="translate(-279.299 -643.251)" fill="#fff"/>
    <path id="Path_130" data-name="Path 130" d="M589.2,943.205l-3.928,12.609,2.181-.269.862-2.95,5.838-.72,1.536,2.654,2.164-.267-6.891-11.275Zm-.371,7.623,1.567-5.387,2.828,4.845Z" transform="translate(-357.864 -644.553)" fill="#fff"/>
    <path id="Path_131" data-name="Path 131" d="M687.248,923.41l.553,1.471,2.436-.916,1.07,2.848a8.629,8.629,0,0,1-2.07,1.121,3.671,3.671,0,0,1-3.133-.023,4.949,4.949,0,0,1-2.092-2.78,4.888,4.888,0,0,1-.253-3.389A3.5,3.5,0,0,1,686,919.708a5.282,5.282,0,0,1,1.762-.355,5.963,5.963,0,0,1,1.883.3l.137-1.749a5.151,5.151,0,0,0-2.1-.33,7.423,7.423,0,0,0-2.354.487,6.406,6.406,0,0,0-2.689,1.8,5.069,5.069,0,0,0-1.189,2.722,6.968,6.968,0,0,0,.473,3.325,7.048,7.048,0,0,0,1.845,2.845,5.026,5.026,0,0,0,2.711,1.256,6.662,6.662,0,0,0,3.284-.439,11.955,11.955,0,0,0,2.147-1.06,8.291,8.291,0,0,0,1.641-1.3L691.52,921.8Z" transform="translate(-432.883 -624.721)" fill="#fff"/>
    <rect id="Rectangle_4231" data-name="Rectangle 4231" width="2.18" height="12.033" transform="translate(265.75 287.05) rotate(-31.553)" fill="#fff"/>
    <path id="Path_132" data-name="Path 132" d="M813.14,828.967l5.688,6.2-10.459-1.829-1.2,1.1,8.132,8.869,1.495-1.371-5.7-6.216,10.483,1.83,1.2-1.1-8.132-8.869Z" transform="translate(-531.02 -554.501)" fill="#fff"/>
    <path id="Path_133" data-name="Path 133" d="M886.125,764l1.3.88,1.457-2.157,2.521,1.7a8.628,8.628,0,0,1-1.039,2.113,3.671,3.671,0,0,1-2.567,1.794,4.948,4.948,0,0,1-3.315-1.056,4.887,4.887,0,0,1-2.169-2.617,3.5,3.5,0,0,1,.651-2.956,5.285,5.285,0,0,1,1.231-1.31,5.98,5.98,0,0,1,1.711-.843l-.9-1.505a5.151,5.151,0,0,0-1.9.948,7.413,7.413,0,0,0-1.637,1.76,6.408,6.408,0,0,0-1.148,3.028,5.069,5.069,0,0,0,.606,2.908,6.971,6.971,0,0,0,2.311,2.437,7.046,7.046,0,0,0,3.152,1.252,5.027,5.027,0,0,0,2.938-.545,6.659,6.659,0,0,0,2.423-2.259,11.935,11.935,0,0,0,1.138-2.108,8.3,8.3,0,0,0,.584-2.012l-4.79-3.235Z" transform="translate(-588.081 -500.234)" fill="#fff"/>
    <path id="Path_134" data-name="Path 134" d="M941.257,607.852a3.356,3.356,0,1,0,3.356,3.356A3.356,3.356,0,0,0,941.257,607.852Z" transform="translate(-633.031 -383.037)" fill="#fff"/>
    <path id="Path_135" data-name="Path 135" d="M155.628,611.208a3.356,3.356,0,1,0-3.356,3.356A3.356,3.356,0,0,0,155.628,611.208Z" transform="translate(-17.364 -383.037)" fill="#fff"/>
    <path id="Path_136" data-name="Path 136" d="M299.465,445.164H299.3v.058l-4.474,1.611-5.379,1.936-9.134,3.289v2.908l10.061-3.622,5.379-1.936,5.379-1.936.968-.349v-2.909l-1.9.682Z" transform="translate(-119.9 -255.346)" fill="#fff"/>
    <path id="Path_137" data-name="Path 137" d="M294.831,471.3l-5.379,1.936-9.134,3.289v2.909l10.061-3.622,5.379-1.936,5.379-1.936.968-.349v-2.909l-1.9.682Z" transform="translate(-119.9 -274.438)" fill="#fff"/>
    <path id="Path_138" data-name="Path 138" d="M289.452,497.783l-9.134,3.289v2.908l8.23-2.963V538.5h2.736V500.032l2.642-.951V538.5h2.736V498.1l2.642-.951V538.5h2.736V493.251l-7.21,2.6Z" transform="translate(-119.9 -293.611)" fill="#fff"/>
    <path id="Path_139" data-name="Path 139" d="M428.492,491.986A28.909,28.909,0,0,0,451,481.253a28.959,28.959,0,0,0,48.871-11.827H497a26.237,26.237,0,0,1-49.535,1.1,20.924,20.924,0,0,1-1.642-7.513,17.347,17.347,0,1,0-1.454,6.94,28.749,28.749,0,0,0,1.48,3.788,20.333,20.333,0,1,1,.994-19.659,25.725,25.725,0,0,1,2.136,9.242,24.343,24.343,0,0,0,1.587,6.665,21.444,21.444,0,0,0,1.885,3.683,23.139,23.139,0,0,0,41.29-4.248H490.8a20.434,20.434,0,0,1-37.1.866c-1.319-2.7-1.778-5.527-2.136-9.242a23.015,23.015,0,0,0-3.472-10.348,23.155,23.155,0,1,0-.762,25.761,29.087,29.087,0,0,0,1.851,2.665,26.172,26.172,0,1,1,3.9-25.281,28.042,28.042,0,0,1,1.761,9.5,17.327,17.327,0,0,0,32.552,6.077H484.2a14.594,14.594,0,1,1,.953-14.476h2.989a17.327,17.327,0,0,0-31.98-.53,28.792,28.792,0,0,0-1.48-3.788,20.4,20.4,0,0,1,36.739,4.317h2.863a23.134,23.134,0,0,0-41.071-7.037,29.045,29.045,0,0,0-1.851-2.665,26.215,26.215,0,0,1,46.118,9.7h2.811a28.963,28.963,0,0,0-50.753-11.827,28.966,28.966,0,1,0-21.048,48.862Zm0-14.372a14.6,14.6,0,1,1,14.6-14.6A14.614,14.614,0,0,1,428.492,477.615Z" transform="translate(-212.919 -246.12)" fill="#fff"/>
    <path id="Path_140" data-name="Path 140" d="M709.851,555.878a2.708,2.708,0,0,0-1.245-.268H706.96v4.622h1.646a2.653,2.653,0,0,0,1.239-.272,1.915,1.915,0,0,0,.816-.8,2.905,2.905,0,0,0,0-2.479A1.885,1.885,0,0,0,709.851,555.878Zm.125,2.037a1.545,1.545,0,0,1-.345,1.1,1.4,1.4,0,0,1-1.061.356H707.9v-2.906h.669C709.53,556.468,709.976,556.927,709.976,557.915Z" transform="translate(-452.821 -342.271)" fill="#fff"/>
    <path id="Path_141" data-name="Path 141" d="M739.638,560.232h1l.456-1.062h1.922l.456,1.062h.992l-2.051-4.622h-.726Zm1.816-1.909.6-1.391.6,1.391Z" transform="translate(-478.32 -342.271)" fill="#fff"/>
    <path id="Path_142" data-name="Path 142" d="M778.366,556.249a1.63,1.63,0,0,1,.58.1,1.982,1.982,0,0,1,.54.331l.192.158.382-.767-.1-.1a1.966,1.966,0,0,0-.719-.436,2.666,2.666,0,0,0-.878-.143,2.359,2.359,0,0,0-1.168.281,1.91,1.91,0,0,0-.778.822,3.1,3.1,0,0,0,0,2.505,1.92,1.92,0,0,0,.784.825,2.888,2.888,0,0,0,1.775.247q.109-.014.211-.032l.168-.034c.058-.013.114-.026.168-.04a2.26,2.26,0,0,0,.45-.17l.108-.055v-2.3h-1.915v.817h1.022v.9c-.071.019-.147.037-.226.052a2.968,2.968,0,0,1-.544.049,1.2,1.2,0,0,1-.968-.369,2.148,2.148,0,0,1-.007-2.279A1.14,1.14,0,0,1,778.366,556.249Z" transform="translate(-506.812 -342.1)" fill="#fff"/>
    <path id="Path_143" data-name="Path 143" d="M814.622,556.456v-.846h-3.1v4.622h3.1v-.846h-2.161v-1.071H814.5v-.853h-2.043v-1.006Z" transform="translate(-534.417 -342.271)" fill="#fff"/>
    <path id="Path_144" data-name="Path 144" d="M845.238,558.517l-2.191-2.907h-.711v4.622h.906v-2.916l2.2,2.916h.717V555.61h-.917Z" transform="translate(-558.458 -342.271)" fill="#fff"/>
  </g>
</svg>
