<svg xmlns="http://www.w3.org/2000/svg" width="15" height="15" viewBox="0 0 15 15">
  <path id="Path_2791" data-name="Path 2791" d="M9.731-9l5.049-5.049a.749.749,0,0,0,0-1.058l-1.173-1.173a.749.749,0,0,0-1.058,0L7.5-11.231,2.451-16.281a.749.749,0,0,0-1.058,0L.219-15.108a.749.749,0,0,0,0,1.058L5.269-9,.219-3.951a.749.749,0,0,0,0,1.058L1.393-1.719a.749.749,0,0,0,1.058,0L7.5-6.769l5.049,5.049a.749.749,0,0,0,1.058,0l1.173-1.173a.749.749,0,0,0,0-1.058Z" transform="translate(0 16.5)" fill="#332e2e"/>
</svg>
