<svg xmlns="http://www.w3.org/2000/svg" width="173" height="31" viewBox="0 0 173 31">
  <g id="Group_4749" data-name="Group 4749" transform="translate(-163 -7160)">
    <rect id="Rectangle_5003" data-name="Rectangle 5003" width="173" height="31" transform="translate(163 7160)" fill="#332e2e"/>
    <g id="Group_4747" data-name="Group 4747">
      <g id="Group_3302" data-name="Group 3302" transform="translate(197.211 7164.936)">
        <g id="Group_2879" data-name="Group 2879" transform="translate(0 0.229)">
          <path id="Path_23" data-name="Path 23" d="M218.564,472V466.39h-1.628v-1.654h1.716l.039-3.576h1.053v3.576h4.564v1.654h-4.564v5.387c.044,1.58.724,2.172,4.256,2.062v1.821c-.351.022-.68.022-.987.022-3.335,0-4.449-1.119-4.449-3.686" transform="translate(-216.936 -460.189)" fill="#fff"/>
          <path id="Path_24" data-name="Path 24" d="M242.005,458.792h1.136v7.327h.066a5.448,5.448,0,0,1,5.042-3.159c2.435,0,3.8,1.843,3.8,4.585v6.6h-1.115V468.2c0-2.128-.68-3.159-3.488-3.159-3.664,0-4.256,2.237-4.256,3.729v5.374h-1.18Z" transform="translate(-232.481 -458.721)" fill="#fff"/>
          <path id="Path_25" data-name="Path 25" d="M280.621,474.594c0-.9-.636-2.632-3.971-2.632-3.466,0-4.278,1.448-4.278,2.632Zm-9.148.922c0-3.159,2.128-5.638,5.265-5.638,2.523,0,4.716,1.646,4.716,5.462v1.229h-9.126c0,1.36,1.162,2.523,4.409,2.632,2.5-.066,3.773-.549,3.773-1.821h.9c0,1.975-1.887,3.905-4.673,3.905-3.553,0-5.265-2.589-5.265-5.77" transform="translate(-250.753 -465.595)" fill="#fff"/>
          <path id="Path_26" data-name="Path 26" d="M360.566,475.982l-2.663-.022c-3.529,0-5.016.488-5.016,1.6,0,.932,1,1.421,3.063,1.421,1.953,0,4.417-1.066,4.617-3m-8.589,1.62c0-2.618,2.2-3.64,5.438-3.64h3.2c-.089-2.219-1.309-2.419-3.773-2.419-2.53,0-3.507.888-3.507,1.576h-.91c0-2.153,2.442-3.684,4.572-3.684,2.8,0,4.439,1.532,4.439,4.661v6.7h-.954l.022-1.931a4.986,4.986,0,0,1-4.394,2.22c-2.131,0-4.128-1.243-4.128-3.485" transform="translate(-300.671 -465.32)" fill="#fff"/>
          <path id="Path_27" data-name="Path 27" d="M391.195,475.528c0-2.353-1.11-3.751-4.15-3.751-2.974,0-4.107,1.4-4.107,3.751,0,2.286,1.133,3.662,4.107,3.662,3.04,0,4.15-1.376,4.15-3.662m.91,0c0,3.218-1.443,5.682-4.572,5.682a5.168,5.168,0,0,1-4.639-3v7.258H381.7V469.935h1.194v2.819a5.2,5.2,0,0,1,4.639-3.085c3.129,0,4.572,2.553,4.572,5.86" transform="translate(-319.101 -465.465)" fill="#fff"/>
          <path id="Path_28" data-name="Path 28" d="M422.527,475.528c0-2.353-1.11-3.751-4.15-3.751-2.974,0-4.106,1.4-4.106,3.751,0,2.286,1.132,3.662,4.106,3.662,3.041,0,4.15-1.376,4.15-3.662m.91,0c0,3.218-1.443,5.682-4.572,5.682a5.168,5.168,0,0,1-4.639-3v7.258h-1.194V469.935h1.194v2.819a5.2,5.2,0,0,1,4.639-3.085c3.129,0,4.572,2.553,4.572,5.86" transform="translate(-338.529 -465.465)" fill="#fff"/>
          <path id="Path_29" data-name="Path 29" d="M451.177,470.226v6.39c-.2,1.931-2.663,3-4.617,3a2.9,2.9,0,0,1-2.74-2.378,38.853,38.853,0,0,1-.323-5.938v-1.07h-1.125v8.01c0,2.242,2.213,3.485,4.343,3.485a5.01,5.01,0,0,0,4.371-2.18v3.248c0,.01-.009,1.652-.714,1.789-.961.187-1.925-.991-3.474-1.61a2.839,2.839,0,0,0-.97-.177v0a2.624,2.624,0,0,0-2.751,1.766h0a2.975,2.975,0,0,0-.125,1.274h.883c-.038-.318-.077-1.588,1.815-1v0a7.23,7.23,0,0,1,1.41.613,5.919,5.919,0,0,0,2.343.869,2.343,2.343,0,0,0,2.1-1.4l0-.005,0-.005h0a5.8,5.8,0,0,0,.432-2.12V470.226Z" transform="translate(-356.722 -465.811)" fill="#fff"/>
          <path id="Path_30" data-name="Path 30" d="M321.221,458.6h1.249V466h.066a5.159,5.159,0,0,1,4.874-3.19c2.459,0,4.048,1.861,4.048,4.63v6.668h-1.123v-6c0-2.149-.687-3.19-3.523-3.19-3.7,0-4.3,2.26-4.3,3.767v5.428h-1.294Z" transform="translate(-281.6 -458.604)" fill="#fff"/>
        </g>
        <path id="Path_31" data-name="Path 31" d="M517.271,458h1.194v9.477l5.615-4.949h2.952l-4.083,3.6,4.505,7.413h-1.22l-4.04-6.769-3.729,3.263v3.507h-1.194Z" transform="translate(-403.165 -458)" fill="#fff"/>
        <rect id="Rectangle_4194" data-name="Rectangle 4194" width="1.478" height="11.008" transform="translate(125.411 4.528)" fill="#fff"/>
        <g id="Group_2880" data-name="Group 2880" transform="translate(103.112 4.217)">
          <path id="Path_32" data-name="Path 32" d="M555.17,469.411h1.15V472.3h.066a5.619,5.619,0,0,1,5.167-3.2c2.464,0,3.84,1.864,3.84,4.638v6.681H564.2V474.4c0-2.153-.688-3.2-3.53-3.2-3.706,0-4.306,2.263-4.306,3.773v5.438H555.17Z" transform="translate(-529.777 -469.1)" fill="#fff"/>
          <path id="Path_33" data-name="Path 33" d="M488.333,476.274h.9c0,1.447,1.03,2.367,4.055,2.367,2.915,0,3.66-.614,3.66-1.447,0-2.3-8.438-.482-8.438-4.8,0-1.38,1.1-3.156,4.559-3.156,3.989,0,4.362,2.411,4.362,3.572h-.9c0-.569-.175-1.49-3.616-1.49-2.915,0-3.507.614-3.507,1.1,0,1.775,8.438.745,8.438,4.647,0,1.359-.942,3.66-4.865,3.66-4.186,0-4.647-3-4.647-4.449" transform="translate(-488.333 -469.186)" fill="#fff"/>
        </g>
      </g>
      <g id="Group_3301" data-name="Group 3301" transform="translate(171.951 7163.131)">
        <g id="Group_2877" data-name="Group 2877" transform="translate(0 0)">
          <path id="Path_19" data-name="Path 19" d="M64.829,363.944a14.877,14.877,0,0,1-1.175,3.554,10.935,10.935,0,0,1-.951,1.6,8.071,8.071,0,0,1-1.229,1.373,6.045,6.045,0,0,1-1.525.99,3.532,3.532,0,0,1-1.682.394,4.206,4.206,0,0,1-1.833-.394,6.043,6.043,0,0,1-1.525-.99,8.057,8.057,0,0,1-1.229-1.373,10.939,10.939,0,0,1-.952-1.6,14.881,14.881,0,0,1-1.174-3.554,18.707,18.707,0,0,1,0-7.337,14.886,14.886,0,0,1,1.175-3.554,10.929,10.929,0,0,1,.952-1.6,8.052,8.052,0,0,1,1.229-1.373,6.046,6.046,0,0,1,1.525-.989,4.073,4.073,0,0,1,3.515,0,6.055,6.055,0,0,1,1.525.99,8.073,8.073,0,0,1,1.229,1.373,10.922,10.922,0,0,1,.951,1.6,14.875,14.875,0,0,1,1.175,3.554,18.711,18.711,0,0,1,0,7.337m1.475-3.669V360.2l0-.03h0a17.948,17.948,0,0,0-.439-3.786,14.969,14.969,0,0,0-1.372-3.759,10.05,10.05,0,0,0-2.508-3.151,6.784,6.784,0,0,0-1.767-1.037,5.478,5.478,0,0,0-1.678-.35l-.064,0c-.1,0-.194,0-.282,0s-.18,0-.281,0h-.042a5.476,5.476,0,0,0-1.7.351,6.788,6.788,0,0,0-1.767,1.037,10.05,10.05,0,0,0-2.508,3.151,14.958,14.958,0,0,0-1.372,3.759,17.941,17.941,0,0,0-.439,3.786h0l0,.105,0,.075,0,.03h0a18.192,18.192,0,0,0,.439,3.786,14.955,14.955,0,0,0,1.372,3.759,10.051,10.051,0,0,0,2.508,3.152,6.789,6.789,0,0,0,1.767,1.037,5.527,5.527,0,0,0,1.9.355h.315a5.446,5.446,0,0,0,1.838-.354,6.79,6.79,0,0,0,1.767-1.037,10.048,10.048,0,0,0,2.508-3.152,14.967,14.967,0,0,0,1.372-3.758,17.954,17.954,0,0,0,.439-3.786h0Z" transform="translate(-50.076 -348.081)" fill="#fff"/>
          <path id="Path_20" data-name="Path 20" d="M87.921,442.412c-.793-.151-1.478-.281-1.478-.629,0-.146.108-.265.322-.354a3.96,3.96,0,0,1,1.4-.181,3.112,3.112,0,0,1,1.526.261.5.5,0,0,1,.253.468v.006H90.4v-.006a1.727,1.727,0,0,0-.339-1.1,2.2,2.2,0,0,0-1.82-.669c-1.665,0-2.257.843-2.257,1.564a1.278,1.278,0,0,0,.846,1.217,6.75,6.75,0,0,0,1.725.427c.855.135,1.594.252,1.594.726,0,.49-.555.708-1.8.708-1.362,0-2-.37-2-1.163v-.006H85.9v.006a2.452,2.452,0,0,0,.373,1.369,2.175,2.175,0,0,0,1.927.833,2.6,2.6,0,0,0,1.932-.654,1.681,1.681,0,0,0,.476-1.159c0-1.155-1.49-1.438-2.687-1.665" transform="translate(-80.139 -425.393)" fill="#fff"/>
          <path id="Path_21" data-name="Path 21" d="M86.523,374.7a1.8,1.8,0,0,0,.507,1.457,2.706,2.706,0,0,0,1.8.457c.162,0,.329,0,.511-.011h.011v-.964h-.012c-1.1.034-1.657-.06-1.937-.324a.961.961,0,0,1-.248-.729v-2.532h2.356v-.878H87.156v-1.846h-.567l-.02,1.846h-.886v.878h.84Z" transform="translate(-79.957 -365.918)" fill="#fff"/>
        </g>
        <path id="Path_22" data-name="Path 22" d="M79.74,402.313v.01h-.019v3.343H71.678v-3.353h-.727v7.548h.377l.35-.008v-3.14h8.043v3.148l.734.011h.012v-7.56Z" transform="translate(-67.594 -393.592)" fill="#fff"/>
      </g>
    </g>
  </g>
</svg>
