<svg xmlns="http://www.w3.org/2000/svg" width="106.73" height="136.623" viewBox="0 0 106.73 136.623">
  <g id="Group_3613" data-name="Group 3613" transform="translate(-38.797 -601)">
    <g id="Group_2882" data-name="Group 2882" transform="translate(38.797 601)">
      <path id="Path_34" data-name="Path 34" d="M140.929,680.882a83.589,83.589,0,0,1-2.279,11.278,72.005,72.005,0,0,1-9.364,20.828,59.082,59.082,0,0,1-7.16,8.825,48.064,48.064,0,0,1-8.783,7.072,42.214,42.214,0,0,1-10.177,4.631,37.782,37.782,0,0,1-22.008,0,42.225,42.225,0,0,1-10.179-4.631,48.087,48.087,0,0,1-8.783-7.072,59.03,59.03,0,0,1-7.159-8.825,71.987,71.987,0,0,1-9.364-20.828,83.6,83.6,0,0,1-2.279-11.278,87.506,87.506,0,0,1-.037-23,83.893,83.893,0,0,1,2.24-11.3,72.175,72.175,0,0,1,9.3-20.907,59.289,59.289,0,0,1,7.156-8.878,48.12,48.12,0,0,1,8.8-7.132,42.392,42.392,0,0,1,10.231-4.674,37.887,37.887,0,0,1,22.151,0,42.378,42.378,0,0,1,10.231,4.674,48.12,48.12,0,0,1,8.8,7.132,59.291,59.291,0,0,1,7.156,8.878,72.154,72.154,0,0,1,9.3,20.907,83.889,83.889,0,0,1,2.24,11.3,87.5,87.5,0,0,1-.037,23m3.727-23.749a84.084,84.084,0,0,0-2.541-11.791,76.141,76.141,0,0,0-4.3-11.241,71.226,71.226,0,0,0-6.022-10.37,61.9,61.9,0,0,0-7.744-9.086c-.717-.689-1.469-1.339-2.2-2.009-.761-.638-1.536-1.258-2.306-1.883-.805-.579-1.594-1.18-2.411-1.74l-1.245-.809c-.416-.269-.822-.553-1.256-.791a42.575,42.575,0,0,0-44.943,0c-.434.238-.841.522-1.256.791l-1.245.809c-.817.56-1.606,1.161-2.411,1.74-.77.625-1.545,1.245-2.306,1.883-.733.671-1.486,1.32-2.2,2.009a61.95,61.95,0,0,0-7.745,9.086A71.291,71.291,0,0,0,46.5,634.1a76.133,76.133,0,0,0-4.3,11.241,84.194,84.194,0,0,0-2.541,11.791,85.632,85.632,0,0,0-.037,24.087,84.331,84.331,0,0,0,2.5,11.808A76.428,76.428,0,0,0,46.387,704.3a71.5,71.5,0,0,0,5.994,10.416,62.223,62.223,0,0,0,7.742,9.14c.717.694,1.471,1.349,2.2,2.023.762.643,1.539,1.269,2.31,1.9.807.585,1.6,1.19,2.416,1.756l1.249.817c.417.271.825.557,1.261.8a42.679,42.679,0,0,0,45.195,0c.436-.239.844-.525,1.261-.8l1.249-.817c.818-.566,1.61-1.171,2.416-1.756.771-.63,1.548-1.255,2.309-1.9.734-.675,1.488-1.329,2.2-2.023a62.173,62.173,0,0,0,7.742-9.14,71.358,71.358,0,0,0,5.994-10.416,76.427,76.427,0,0,0,4.257-11.274,84.333,84.333,0,0,0,2.5-11.808,85.554,85.554,0,0,0-.037-24.087" transform="translate(-38.797 -601)" fill="#332e2e"/>
      <path id="Path_35" data-name="Path 35" d="M54.3,687.178a1.444,1.444,0,0,0,.866.253,1.165,1.165,0,0,0,1.028-.546,2.678,2.678,0,0,0,.306-.642,6.952,6.952,0,0,0,.222-.858,5.837,5.837,0,0,1,.193-.688.953.953,0,0,1,.243-.4.548.548,0,0,1,.37-.132.7.7,0,0,1,.607.3,1.45,1.45,0,0,1,.227.842,2.5,2.5,0,0,1-.134.846,2.624,2.624,0,0,1-.436.779l.732.332a2.039,2.039,0,0,0,.346-.537,3.174,3.174,0,0,0,.213-.68,3.617,3.617,0,0,0,.069-.756,2.73,2.73,0,0,0-.227-1.116,1.733,1.733,0,0,0-.6-.733,1.485,1.485,0,0,0-.871-.253,1.377,1.377,0,0,0-.614.135,1.231,1.231,0,0,0-.441.381,2.4,2.4,0,0,0-.314.623,5.577,5.577,0,0,0-.218.862,5.971,5.971,0,0,1-.185.692,1.1,1.1,0,0,1-.239.421.5.5,0,0,1-.359.144.635.635,0,0,1-.568-.308,1.638,1.638,0,0,1-.212-.884,3.1,3.1,0,0,1,.129-.954,2.939,2.939,0,0,1,.439-.858l-.732-.324a2.492,2.492,0,0,0-.349.6,3.343,3.343,0,0,0-.213.726,4.436,4.436,0,0,0-.064.814,3.149,3.149,0,0,0,.211,1.17,1.656,1.656,0,0,0,.574.749" transform="translate(-41.651 -616.929)" fill="#332e2e"/>
    </g>
    <path id="Path_36" data-name="Path 36" d="M59.951,697.81l-.139-1.2-2.736-2.163,2.453-.283-.115-.992-5.477.633.115.992,2.56-.3-2.266,2.842.14,1.216,2.521-3.107Z" transform="translate(-2.937 -17.878)" fill="#332e2e"/>
    <rect id="Rectangle_4195" data-name="Rectangle 4195" width="5.514" height="0.999" transform="translate(52.278 684.438) rotate(-12.098)" fill="#332e2e"/>
    <path id="Path_37" data-name="Path 37" d="M63.576,712.755l-3.662,1.206,2.735-4.023-.232-.706-5.237,1.724.293.89,3.657-1.2L58.4,714.655l.235.714,5.237-1.724Z" transform="translate(-3.566 -20.994)" fill="#332e2e"/>
    <path id="Path_38" data-name="Path 38" d="M71.082,728.1l-1.958,1.235-1.512-2.4,1.959-1.235-.525-.832-4.664,2.94.525.832,2.031-1.28,1.512,2.4-2.031,1.28.521.825,4.664-2.94Z" transform="translate(-4.963 -24.027)" fill="#332e2e"/>
    <path id="Path_39" data-name="Path 39" d="M75.4,734.962l1.823,2.005.579-.526-2.48-2.727-4.079,3.709,2.48,2.727.579-.526-1.823-2.005,1.2-1.094,1.719,1.891.584-.531-1.719-1.891Z" transform="translate(-6.293 -25.742)" fill="#332e2e"/>
    <path id="Path_40" data-name="Path 40" d="M82.284,745l-1.64-1.187,2.2-1.313Zm-4.39-.625.816.59,1.21-.721,2.18,1.577-.31,1.373.8.58L83.8,741.85l-.659-.476Z" transform="translate(-7.584 -27.228)" fill="#332e2e"/>
    <path id="Path_41" data-name="Path 41" d="M91.6,745.841l-.928-.37-2.04,5.122,3.317,1.321.3-.763-2.388-.951Z" transform="translate(-9.666 -28.023)" fill="#332e2e"/>
    <path id="Path_42" data-name="Path 42" d="M97.29,748.564l1.777.269-.7,4.64,1,.15.7-4.64,1.776.268.122-.811-4.548-.687Z" transform="translate(-11.346 -28.465)" fill="#332e2e"/>
    <path id="Path_43" data-name="Path 43" d="M110.61,747.885l.345,2.29-2.8.422-.345-2.29-.973.146.82,5.452.973-.146-.357-2.374,2.8-.422.358,2.374.965-.145-.82-5.452Z" transform="translate(-13.197 -28.463)" fill="#332e2e"/>
    <path id="Path_44" data-name="Path 44" d="M125.709,745.44l-.513-2.514,2.174,1.356Zm-1.481-3.168,1.105,5.949.826-.575-.281-1.38,2.208-1.537,1.194.745.813-.567-5.2-3.1Z" transform="translate(-16.571 -27.312)" fill="#332e2e"/>
    <path id="Path_45" data-name="Path 45" d="M133.23,734.762l-.592-.568-3.183,3.32.593.568,1.243-1.3,3.388,3.247.7-.727-3.388-3.247Z" transform="translate(-17.585 -25.836)" fill="#332e2e"/>
    <path id="Path_46" data-name="Path 46" d="M138.9,727.118l-.68-.46-2.577,3.81.68.46,1.006-1.489,3.887,2.629.564-.834-3.888-2.629Z" transform="translate(-18.785 -24.374)" fill="#332e2e"/>
    <rect id="Rectangle_4196" data-name="Rectangle 4196" width="0.999" height="5.514" transform="translate(121.126 699.179) rotate(-62.997)" fill="#332e2e"/>
    <path id="Path_47" data-name="Path 47" d="M145.794,712.63l-.768-.289-1.622,4.3.768.289.634-1.681,4.391,1.654.355-.942-4.391-1.654Z" transform="translate(-20.29 -21.597)" fill="#332e2e"/>
    <g id="Group_2883" data-name="Group 2883" transform="translate(125.75 674.4)">
      <path id="Path_48" data-name="Path 48" d="M150.931,703.381l-3.2-.756-.228.964,3.248.769a1.554,1.554,0,0,1,.97.576,1.24,1.24,0,0,1,.137,1.031,1.279,1.279,0,0,1-.587.884,1.547,1.547,0,0,1-1.128.079l-3.248-.769-.224.95,3.2.757a2.311,2.311,0,0,0,1.8-.175,2.816,2.816,0,0,0,.786-3.339,2.293,2.293,0,0,0-1.525-.97" transform="translate(-146.675 -694.112)" fill="#332e2e"/>
      <path id="Path_49" data-name="Path 49" d="M153.7,695.19l-.1.962-3.865-.412.1-.962a1.7,1.7,0,0,1,2.127-1.689,2.02,2.02,0,0,1,1.4.629,1.914,1.914,0,0,1,.334,1.473m-.181-2.609a3.086,3.086,0,0,0-1.45-.493,3.036,3.036,0,0,0-1.51.177,2.253,2.253,0,0,0-1.039.866,3.346,3.346,0,0,0-.486,1.5l-.216,2.017,5.483.585.215-2.017a3.345,3.345,0,0,0-.16-1.563,2.237,2.237,0,0,0-.836-1.07" transform="translate(-147.091 -692.064)" fill="#332e2e"/>
    </g>
    <path id="Path_50" data-name="Path 50" d="M154.333,682.273l.032,2.71-1.626.019-.029-2.555-.79.009.03,2.555-1.533.018-.032-2.71-.782.009.042,3.686,5.513-.063-.042-3.686Z" transform="translate(-21.493 -15.763)" fill="#332e2e"/>
    <path id="Path_51" data-name="Path 51" d="M57.673,658.41l4.474,1.416.3-.96-4.474-1.415.542-1.713-.782-.247-1.388,4.385.782.248Z" transform="translate(-3.405 -10.569)" fill="#332e2e"/>
    <path id="Path_52" data-name="Path 52" d="M65.412,650.953l-2.167-1.033,1.22-2.558,2.167,1.034.42-.881-4.976-2.374-.42.881,2.09,1-1.22,2.558-2.09-1-.424.887,4.977,2.374Z" transform="translate(-4.115 -8.562)" fill="#332e2e"/>
    <path id="Path_53" data-name="Path 53" d="M72.269,639.267l-.645-.443-1.534,2.235-1.341-.921,1.446-2.107-.651-.447L68.1,639.692l-1.264-.868,1.534-2.235-.645-.443-2.086,3.039,4.546,3.12Z" transform="translate(-5.206 -6.817)" fill="#332e2e"/>
    <path id="Path_54" data-name="Path 54" d="M81.075,629.764l-1.45-1.913,2.259-1.712,1.45,1.913.778-.59-3.331-4.394-.777.589,1.4,1.845-2.259,1.712-1.4-1.845-.784.594,3.33,4.394Z" transform="translate(-7.403 -4.281)" fill="#332e2e"/>
    <path id="Path_55" data-name="Path 55" d="M90.161,622.355l.083-2.565,1.8,1.823Zm-.027.843,2.5-.986.989,1,.922-.363-4.339-4.217-.757.3-.3,6.044.937-.368Z" transform="translate(-9.767 -3.42)" fill="#332e2e"/>
    <g id="Group_2884" data-name="Group 2884" transform="translate(87.368 613.181)">
      <path id="Path_56" data-name="Path 56" d="M101.385,616.911a1.222,1.222,0,0,1,.8.153.859.859,0,0,1,.088,1.224,1.2,1.2,0,0,1-.767.275l-1.274.1-.123-1.653Zm-.92,4.814-.172-2.3,1.39-.1a2.04,2.04,0,0,0,1.346-.536,1.633,1.633,0,0,0-.168-2.337,2.044,2.044,0,0,0-1.418-.324l-2.387.179.413,5.5Z" transform="translate(-99.056 -616.113)" fill="#332e2e"/>
      <path id="Path_57" data-name="Path 57" d="M111,617.439l1.247.28a1.215,1.215,0,0,1,.725.38.861.861,0,0,1-.272,1.2,1.208,1.208,0,0,1-.814.039l-1.247-.28Zm-.53,2.365,1.36.306a2.045,2.045,0,0,0,1.444-.121,1.632,1.632,0,0,0,.52-2.284,2.046,2.046,0,0,0-1.262-.724l-2.335-.523-1.206,5.38.975.218Z" transform="translate(-100.983 -616.179)" fill="#332e2e"/>
    </g>
    <path id="Path_58" data-name="Path 58" d="M120.412,625.684l1.025-1.918,3.548-1.89-1-.537-2.583,1.44-.237-2.948-1-.537.4,3.991-1.03,1.927Z" transform="translate(-15.66 -3.549)" fill="#332e2e"/>
    <g id="Group_2885" data-name="Group 2885" transform="translate(113.041 625.229)">
      <path id="Path_59" data-name="Path 59" d="M131.348,634.93a4.4,4.4,0,0,0,.484.658,3.134,3.134,0,0,0,.925.748,1.66,1.66,0,0,0,.924.191,1.445,1.445,0,0,0,.821-.375,1.168,1.168,0,0,0,.42-1.085,2.708,2.708,0,0,0-.189-.687,6.926,6.926,0,0,0-.393-.795,5.847,5.847,0,0,1-.3-.646.956.956,0,0,1-.077-.46.55.55,0,0,1,.194-.342.694.694,0,0,1,.658-.168,1.451,1.451,0,0,1,.721.488,2.51,2.51,0,0,1,.452.728,2.65,2.65,0,0,1,.18.874l.771-.227a2.036,2.036,0,0,0-.09-.634,3.18,3.18,0,0,0-.283-.654,3.744,3.744,0,0,0-.442-.617,2.726,2.726,0,0,0-.9-.7,1.74,1.74,0,0,0-.934-.161,1.487,1.487,0,0,0-.824.377,1.38,1.38,0,0,0-.376.5,1.229,1.229,0,0,0-.085.576,2.407,2.407,0,0,0,.17.677,5.5,5.5,0,0,0,.4.795,5.87,5.87,0,0,1,.311.645,1.082,1.082,0,0,1,.094.475.492.492,0,0,1-.176.343.636.636,0,0,1-.632.14,1.645,1.645,0,0,1-.738-.531,3.1,3.1,0,0,1-.526-.806,2.953,2.953,0,0,1-.228-.935l-.766.233a2.517,2.517,0,0,0,.126.679,3.387,3.387,0,0,0,.314.688" transform="translate(-130.908 -631.059)" fill="#332e2e"/>
    </g>
    <path id="Path_60" data-name="Path 60" d="M137.149,642.537l2.192-1.355-.844,3.535.643,1.041.963-3.883,3.666.885-.636-1.027-3.4-.8,2.1-1.3-.525-.85-4.69,2.9Z" transform="translate(-18.975 -7.33)" fill="#332e2e"/>
    <rect id="Rectangle_4197" data-name="Rectangle 4197" width="5.514" height="0.999" transform="translate(121.581 641.385) rotate(-24.68)" fill="#332e2e"/>
    <path id="Path_61" data-name="Path 61" d="M144.282,657.416l3.661-1.191-2.747,4,.232.714,5.244-1.705-.29-.891-3.667,1.192,2.75-4.013-.23-.707-5.243,1.705Z" transform="translate(-20.404 -10.439)" fill="#332e2e"/>
    <g id="Group_2886" data-name="Group 2886" transform="translate(53.21 627.669)">
      <path id="Path_62" data-name="Path 62" d="M56.679,671.324a1.246,1.246,0,1,0,1.246-1.246,1.246,1.246,0,0,0-1.246,1.246" transform="translate(-56.679 -641.068)" fill="#332e2e"/>
      <path id="Path_63" data-name="Path 63" d="M150.166,671.324a1.246,1.246,0,1,0,1.246-1.246,1.246,1.246,0,0,0-1.246,1.246" transform="translate(-74.813 -641.068)" fill="#332e2e"/>
      <path id="Path_64" data-name="Path 64" d="M113.742,705.857a27.555,27.555,0,0,1-4.2,4.688,20.649,20.649,0,0,1-5.208,3.38,12.062,12.062,0,0,1-5.744,1.347,14.354,14.354,0,0,1-6.26-1.347,20.628,20.628,0,0,1-5.209-3.38,27.492,27.492,0,0,1-4.2-4.688,37.4,37.4,0,0,1-3.249-5.463,50.794,50.794,0,0,1-4.011-12.136,63.867,63.867,0,0,1,0-25.053,50.8,50.8,0,0,1,4.011-12.137,37.355,37.355,0,0,1,3.25-5.462,27.454,27.454,0,0,1,4.2-4.689,20.634,20.634,0,0,1,5.207-3.379,16.638,16.638,0,0,1,6-1.362,16.644,16.644,0,0,1,6,1.361,20.658,20.658,0,0,1,5.209,3.38,27.522,27.522,0,0,1,4.2,4.689,37.317,37.317,0,0,1,3.249,5.462A50.826,50.826,0,0,1,121,663.2a63.863,63.863,0,0,1,0,25.052,50.819,50.819,0,0,1-4.011,12.138,37.468,37.468,0,0,1-3.249,5.463m10.79-16.839a61.265,61.265,0,0,0,1.5-12.929h.015l-.007-.361,0-.254-.008-.1h0a61.217,61.217,0,0,0-1.5-12.926,51.093,51.093,0,0,0-4.686-12.837,34.313,34.313,0,0,0-8.566-10.762,23.15,23.15,0,0,0-6.035-3.54,18.714,18.714,0,0,0-5.728-1.194L99.3,634.1c-.346-.013-.661-.017-.962-.011s-.616,0-.958.011l-.143,0v0a18.688,18.688,0,0,0-5.811,1.2,23.186,23.186,0,0,0-6.034,3.54,34.325,34.325,0,0,0-8.566,10.762,51.1,51.1,0,0,0-4.686,12.836,61.285,61.285,0,0,0-1.5,12.927h-.014l.006.36-.006.256.01.1h0a62.154,62.154,0,0,0,1.5,12.928,51.082,51.082,0,0,0,4.686,12.835,34.309,34.309,0,0,0,8.566,10.762,23.2,23.2,0,0,0,6.035,3.541,18.863,18.863,0,0,0,6.473,1.213l.973,0,.1,0v0a18.579,18.579,0,0,0,6.275-1.211,23.158,23.158,0,0,0,6.034-3.54,34.307,34.307,0,0,0,8.566-10.762,51.085,51.085,0,0,0,4.685-12.835" transform="translate(-59.384 -634.087)" fill="#332e2e"/>
      <path id="Path_65" data-name="Path 65" d="M101.931,704.375c-2.708-.514-5.048-.958-5.048-2.146,0-.5.371-.906,1.1-1.211a13.527,13.527,0,0,1,4.791-.617c2.526,0,4.28.3,5.212.893a1.706,1.706,0,0,1,.863,1.6v.02h1.556v-.02a5.9,5.9,0,0,0-1.159-3.758c-1.2-1.516-3.289-2.284-6.214-2.284-5.687,0-7.706,2.877-7.706,5.341a4.365,4.365,0,0,0,2.89,4.154,23.035,23.035,0,0,0,5.891,1.457c2.921.461,5.444.859,5.444,2.479,0,1.673-1.9,2.419-6.149,2.419-4.65,0-6.816-1.261-6.816-3.97v-.02H95.031v.02a8.366,8.366,0,0,0,1.274,4.677c1.293,1.887,3.506,2.845,6.579,2.845,2.934,0,5.153-.751,6.6-2.232a5.741,5.741,0,0,0,1.627-3.958c0-3.944-5.088-4.911-9.177-5.687" transform="translate(-64.118 -646.261)" fill="#332e2e"/>
      <path id="Path_66" data-name="Path 66" d="M97.752,666.9c0,2.375.551,3.956,1.731,4.976,1.234,1.066,3.189,1.562,6.152,1.562.552,0,1.123,0,1.743-.039l.038,0v-3.29h-.041c-3.74.117-5.658-.2-6.613-1.1a3.286,3.286,0,0,1-.848-2.49v-8.646h8.044v-3H99.913v-6.3H97.977l-.069,6.3H94.883v3h2.869Z" transform="translate(-64.089 -636.896)" fill="#332e2e"/>
    </g>
    <path id="Path_67" data-name="Path 67" d="M114.859,671.034v.035h-.065v11.415H87.33v-11.45H84.847V696.81h1.287l1.2-.028V686.058h27.464V696.81l2.505.038h.041V671.034Z" transform="translate(-8.932 -13.584)" fill="#332e2e"/>
  </g>
</svg>
